<svg width="30" height="30" viewBox="0 0 30 30" fill="none" xmlns="http://www.w3.org/2000/svg">
<path d="M9.83582 19.3249L8.75 27.5L14.4855 24.0587C14.6726 23.9465 14.7661 23.8903 14.8659 23.8684C14.9543 23.849 15.0457 23.849 15.1341 23.8684C15.2339 23.8903 15.3274 23.9465 15.5145 24.0587L21.25 27.5L20.1649 19.3214M20.5324 5.3111C20.7254 5.778 21.096 6.14912 21.5626 6.34288L23.1987 7.0206C23.6656 7.21401 24.0365 7.58499 24.2299 8.05193C24.4234 8.51887 24.4234 9.04351 24.2299 9.51044L23.5527 11.1454C23.3592 11.6126 23.359 12.1378 23.5533 12.6047L24.2294 14.2392C24.3253 14.4705 24.3746 14.7183 24.3747 14.9687C24.3747 15.2191 24.3254 15.467 24.2296 15.6983C24.1338 15.9296 23.9934 16.1397 23.8163 16.3167C23.6393 16.4937 23.4291 16.6341 23.1978 16.7298L21.5628 17.4071C21.0959 17.6001 20.7248 17.9707 20.5311 18.4373L19.8534 20.0735C19.66 20.5404 19.289 20.9114 18.8221 21.1048C18.3552 21.2982 17.8306 21.2982 17.3636 21.1048L15.7287 20.4275C15.2618 20.2346 14.7373 20.235 14.2707 20.4286L12.6346 21.1054C12.1679 21.2984 11.6438 21.2982 11.1772 21.1049C10.7107 20.9117 10.3399 20.5411 10.1464 20.0747L9.46849 18.4381C9.27544 17.9712 8.90489 17.6 8.43829 17.4063L6.80219 16.7286C6.33547 16.5352 5.96462 16.1645 5.77114 15.6978C5.57766 15.2311 5.5774 14.7067 5.77041 14.2399L6.44762 12.6049C6.64055 12.1379 6.64016 11.6135 6.44653 11.1468L5.77029 9.50949C5.67441 9.27822 5.62504 9.03032 5.625 8.77997C5.62496 8.52961 5.67425 8.2817 5.77005 8.05041C5.86586 7.81911 6.00629 7.60895 6.18334 7.43196C6.36039 7.25496 6.57058 7.11458 6.8019 7.01885L8.43684 6.34161C8.90332 6.14872 9.2742 5.77863 9.4681 5.31255L10.1458 3.67638C10.3392 3.20945 10.7102 2.83847 11.1771 2.64506C11.644 2.45165 12.1686 2.45165 12.6355 2.64506L14.2705 3.3223C14.7374 3.51523 15.2618 3.51484 15.7285 3.3212L17.3653 2.64611C17.8321 2.45281 18.3567 2.45285 18.8235 2.64622C19.2903 2.83959 19.6612 3.21046 19.8547 3.67728L20.5326 5.31393L20.5324 5.3111Z" stroke="#18233F" stroke-width="2" stroke-linecap="round" stroke-linejoin="round"/>
</svg>
