<svg width="30" height="30" viewBox="0 0 30 30" fill="none" xmlns="http://www.w3.org/2000/svg">
<path d="M8.125 25H6.25C4.86929 25 3.75 23.8807 3.75 22.5V5C3.75 3.61929 4.86929 2.5 6.25 2.5H23.75C25.1307 2.5 26.25 3.61929 26.25 5V22.5C26.25 23.8807 25.1307 25 23.75 25H21.875M15 23.75C17.0711 23.75 18.75 22.0711 18.75 20C18.75 17.9289 17.0711 16.25 15 16.25C12.9289 16.25 11.25 17.9289 11.25 20C11.25 22.0711 12.9289 23.75 15 23.75ZM15 23.75L15.0268 23.7497L11.0358 27.7407L7.50031 24.2052L11.2746 20.4309M15 23.75L18.991 27.7407L22.5266 24.2052L18.7523 20.4309M11.25 7.5H18.75M8.75 11.875H21.25" stroke="#18233F" stroke-width="2" stroke-linecap="round" stroke-linejoin="round"/>
</svg>
