<svg width="33" height="33" viewBox="0 0 33 33" fill="none" xmlns="http://www.w3.org/2000/svg">
<path d="M30.25 12.375H2.75M19.25 24.0625L22.6875 20.625L19.25 17.1875M13.75 17.1875L10.3125 20.625L13.75 24.0625M2.75 10.725L2.75 22.275C2.75 24.5852 2.75 25.7403 3.1996 26.6227C3.59508 27.3989 4.22612 28.0299 5.00229 28.4254C5.88467 28.875 7.03978 28.875 9.35 28.875H23.65C25.9602 28.875 27.1153 28.875 27.9977 28.4254C28.7739 28.0299 29.4049 27.3989 29.8004 26.6227C30.25 25.7403 30.25 24.5852 30.25 22.275V10.725C30.25 8.41478 30.25 7.25968 29.8004 6.37729C29.4049 5.60112 28.7739 4.97008 27.9977 4.5746C27.1153 4.125 25.9602 4.125 23.65 4.125L9.35 4.125C7.03978 4.125 5.88468 4.125 5.00229 4.5746C4.22612 4.97008 3.59508 5.60112 3.1996 6.37729C2.75 7.25967 2.75 8.41478 2.75 10.725Z" stroke="black" stroke-width="2" stroke-linecap="round" stroke-linejoin="round"/>
</svg>
