<svg width="36" height="36" viewBox="0 0 36 36" fill="none" xmlns="http://www.w3.org/2000/svg">
<path d="M6 27V26.7C6 24.1798 6 22.9196 6.49047 21.957C6.9219 21.1103 7.61031 20.4219 8.45704 19.9905C9.41965 19.5 10.6798 19.5 13.2 19.5H22.8C25.3202 19.5 26.5804 19.5 27.543 19.9905C28.3897 20.4219 29.0781 21.1103 29.5095 21.957C30 22.9196 30 24.1798 30 26.7V27M6 27C4.34315 27 3 28.3431 3 30C3 31.6569 4.34315 33 6 33C7.65685 33 9 31.6569 9 30C9 28.3431 7.65685 27 6 27ZM30 27C28.3431 27 27 28.3431 27 30C27 31.6569 28.3431 33 30 33C31.6569 33 33 31.6569 33 30C33 28.3431 31.6569 27 30 27ZM18 27C16.3431 27 15 28.3431 15 30C15 31.6569 16.3431 33 18 33C19.6569 33 21 31.6569 21 30C21 28.3431 19.6569 27 18 27ZM18 27V12M9 12H27C28.3978 12 29.0967 12 29.6481 11.7716C30.3831 11.4672 30.9672 10.8831 31.2716 10.1481C31.5 9.59674 31.5 8.89782 31.5 7.5C31.5 6.10218 31.5 5.40326 31.2716 4.85195C30.9672 4.11687 30.3831 3.53284 29.6481 3.22836C29.0967 3 28.3978 3 27 3H9C7.60218 3 6.90326 3 6.35195 3.22836C5.61687 3.53284 5.03284 4.11687 4.72836 4.85195C4.5 5.40326 4.5 6.10218 4.5 7.5C4.5 8.89782 4.5 9.59674 4.72836 10.1481C5.03284 10.8831 5.61687 11.4672 6.35195 11.7716C6.90326 12 7.60218 12 9 12Z" stroke="black" stroke-width="2" stroke-linecap="round" stroke-linejoin="round"/>
</svg>
