<svg width="387" height="377" viewBox="0 0 387 377" fill="none" xmlns="http://www.w3.org/2000/svg">
<path d="M300.227 55.833C305.583 49.4737 304.801 39.9219 298.035 35.0906C267.651 13.3958 231.401 1.14348 193.857 0.0761272C151.28 -1.13428 109.548 12.1108 75.4627 37.653C41.377 63.1951 16.9466 99.5285 6.15288 140.732C-4.64088 181.936 -1.16166 225.58 16.0235 264.553C33.2087 303.527 63.0867 335.531 100.789 355.35C138.49 375.17 181.793 381.636 223.64 373.696C265.488 365.755 303.412 343.876 331.233 311.624C355.767 283.183 371.168 248.155 375.642 211.09C376.638 202.836 370.113 195.817 361.806 195.482C353.498 195.147 346.566 201.629 345.445 209.867C341.325 240.128 328.523 268.671 308.436 291.958C285.058 319.059 253.191 337.443 218.028 344.116C182.864 350.788 146.478 345.354 114.798 328.7C83.1181 312.046 58.0123 285.154 43.5719 252.406C29.1316 219.658 26.2081 182.984 35.2779 148.362C44.3476 113.739 64.8759 83.2092 93.5173 61.7467C122.159 40.2842 157.225 29.1546 193.001 30.1717C223.743 31.0457 253.451 40.8437 278.572 58.2111C285.411 62.9391 294.872 62.1923 300.227 55.833Z" fill="#E0E0E0" fill-opacity="0.3"/>
<path d="M377 59.0481L192.758 244.141L109.012 160.008" fill="white" fill-opacity="0.3"/>
<path d="M377 59.0481L192.758 244.141L109.012 160.008" stroke="#FF8A00" stroke-opacity="0.2" stroke-width="20" stroke-linecap="round" stroke-linejoin="round"/>
</svg>
