<svg width="385" height="371" viewBox="0 0 385 371" fill="none" xmlns="http://www.w3.org/2000/svg">
<path d="M298.508 54.9514C303.885 48.652 303.102 39.1197 296.328 34.3552C266.132 13.1156 230.122 1.12094 192.828 0.0747232C150.477 -1.11336 108.967 11.8875 75.0624 36.9586C41.1575 62.0296 16.8567 97.6929 6.12024 138.137C-4.61626 178.58 -1.1555 221.42 15.9385 259.674C33.0325 297.929 62.7521 329.343 100.254 348.796C137.756 368.25 180.829 374.598 222.454 366.804C264.079 359.01 301.802 337.534 329.476 305.876C353.832 278.014 369.14 243.711 373.623 207.407C374.637 199.194 368.14 192.205 359.87 191.876V191.876C351.613 191.548 344.726 197.99 343.587 206.174C339.464 235.811 326.741 263.762 306.799 286.574C283.546 313.175 251.848 331.22 216.871 337.769C181.894 344.318 145.701 338.985 114.189 322.638C82.6772 306.292 57.7045 279.895 43.3408 247.751C28.9771 215.607 26.0691 179.609 35.0907 145.626C44.1124 111.642 64.5317 81.6746 93.0212 60.6079C121.511 39.5412 156.391 28.6169 191.977 29.6153C222.636 30.4753 252.261 40.1409 277.29 57.2716C283.999 61.8632 293.231 61.1351 298.508 54.9514V54.9514Z" fill="#E0E0E0" fill-opacity="0.3"/>
<path d="M375.001 57.9592L191.736 239.639L118.369 165.883" fill="white" fill-opacity="0.3"/>
<path d="M375.001 57.9592L191.736 239.639L118.369 165.883" stroke="#00FF0A" stroke-opacity="0.2" stroke-width="20" stroke-linecap="round" stroke-linejoin="round"/>
</svg>
