<svg width="60" height="60" viewBox="0 0 60 60" fill="none" xmlns="http://www.w3.org/2000/svg">
<rect width="60" height="60" fill="white"/>
<mask id="path-1-outside-1_869_37" maskUnits="userSpaceOnUse" x="1" y="1" width="58" height="48" fill="black">
<rect fill="white" x="1" y="1" width="58" height="48"/>
<path d="M54 47H6C5.20435 47 4.44129 46.6689 3.87868 46.0795C3.31607 45.4901 3 44.6907 3 43.8571V6.14286C3 5.30932 3.31607 4.50992 3.87868 3.92052C4.44129 3.33112 5.20435 3 6 3H54C54.7957 3 55.5587 3.33112 56.1213 3.92052C56.6839 4.50992 57 5.30932 57 6.14286V43.8571C57 44.6907 56.6839 45.4901 56.1213 46.0795C55.5587 46.6689 54.7957 47 54 47ZM15 15.5714L28.14 26.54C28.6696 26.9785 29.325 27.217 30 27.217C30.675 27.217 31.3304 26.9785 31.86 26.54L45 15.5714"/>
</mask>
<path d="M3 43.8571H1H3ZM6 3V5V3ZM16.2817 14.0361C15.4337 13.3282 14.1725 13.4418 13.4646 14.2898C12.7568 15.1377 12.8704 16.399 13.7184 17.1068L16.2817 14.0361ZM28.14 26.54L26.8583 28.0754L26.8646 28.0806L28.14 26.54ZM30 27.217V25.217V27.217ZM31.86 26.54L33.1354 28.0806L33.1417 28.0754L31.86 26.54ZM46.2817 17.1068C47.1296 16.399 47.2432 15.1377 46.5354 14.2898C45.8275 13.4418 44.5663 13.3282 43.7184 14.0361L46.2817 17.1068ZM54 45H6V49H54V45ZM6 45C5.7656 45 5.52087 44.9033 5.32539 44.6985L2.43197 47.4604C3.36171 48.4344 4.6431 49 6 49V45ZM5.32539 44.6985C5.1269 44.4906 5 44.1895 5 43.8571H1C1 45.1919 1.50525 46.4896 2.43197 47.4604L5.32539 44.6985ZM5 43.8571V6.14286H1V43.8571H5ZM5 6.14286C5 5.81051 5.12689 5.50942 5.32539 5.30147L2.43197 2.53957C1.50525 3.51042 1 4.80813 1 6.14286H5ZM5.32539 5.30147C5.52087 5.09669 5.7656 5 6 5L6 1C4.6431 1 3.36171 1.56556 2.43197 2.53957L5.32539 5.30147ZM6 5H54V1H6V5ZM54 5C54.2344 5 54.4791 5.09669 54.6746 5.30147L57.568 2.53957C56.6383 1.56556 55.3569 1 54 1V5ZM54.6746 5.30147C54.8731 5.50941 55 5.8105 55 6.14286H59C59 4.80814 58.4948 3.51043 57.568 2.53957L54.6746 5.30147ZM55 6.14286V43.8571H59V6.14286H55ZM55 43.8571C55 44.1895 54.8731 44.4906 54.6746 44.6985L57.568 47.4604C58.4948 46.4896 59 45.1919 59 43.8571H55ZM54.6746 44.6985C54.4791 44.9033 54.2344 45 54 45V49C55.3569 49 56.6383 48.4344 57.568 47.4604L54.6746 44.6985ZM13.7184 17.1068L26.8584 28.0754L29.4217 25.0046L16.2817 14.0361L13.7184 17.1068ZM26.8646 28.0806C27.7457 28.81 28.85 29.217 30 29.217V25.217C29.8 25.217 29.5936 25.147 29.4154 24.9994L26.8646 28.0806ZM30 29.217C31.15 29.217 32.2543 28.81 33.1354 28.0806L30.5846 24.9994C30.4064 25.1469 30.2001 25.217 30 25.217V29.217ZM33.1417 28.0754L46.2817 17.1068L43.7184 14.0361L30.5784 25.0046L33.1417 28.0754Z" fill="black" mask="url(#path-1-outside-1_869_37)"/>
</svg>
