<svg width="95" height="95" viewBox="0 0 95 95" fill="none" xmlns="http://www.w3.org/2000/svg">
<path d="M89.7242 36.9556H86.6369C85.5932 36.8813 84.5922 36.5113 83.7511 35.8888C82.91 35.2664 82.2635 34.4173 81.8873 33.4409V33.2509C81.4364 32.2646 81.295 31.1649 81.4815 30.0966C81.668 29.0283 82.1738 28.0415 82.9322 27.2664L85.117 25.0815C86.0976 24.0787 86.6466 22.7319 86.6466 21.3293C86.6466 19.9268 86.0976 18.5799 85.117 17.5771L77.3751 10.1677C76.3723 9.18711 75.0254 8.63809 73.6229 8.63809C72.2203 8.63809 70.8735 9.18711 69.8707 10.1677L67.6858 12.3525C66.9146 13.1011 65.9364 13.6009 64.8779 13.7872C63.8193 13.9735 62.7292 13.8377 61.7488 13.3974V13.3974C60.7724 13.0212 59.9233 12.3747 59.3009 11.5336C58.6784 10.6925 58.3084 9.6915 58.234 8.64777V5.27553C58.2345 4.5669 58.0921 3.86546 57.8154 3.21311C57.5386 2.56076 57.1332 1.9709 56.6233 1.47878C56.1135 0.986649 55.5096 0.602358 54.8479 0.348867C54.1862 0.0953765 53.4801 -0.0221116 52.772 0.00342451H42.2278C40.8295 0.00342451 39.4885 0.558876 38.4998 1.54759C37.5111 2.5363 36.9556 3.87728 36.9556 5.27553V8.3628C36.8813 9.40653 36.5113 10.4075 35.8888 11.2486C35.2664 12.0897 34.4173 12.7362 33.4409 13.1124H33.2509C32.2977 13.5897 31.224 13.7723 30.1666 13.6369C29.1093 13.5016 28.1161 13.0544 27.3139 12.3525L25.129 10.1677C24.1262 9.18711 22.7794 8.63809 21.3768 8.63809C19.9743 8.63809 18.6274 9.18711 17.6246 10.1677L10.1677 17.6246C9.18711 18.6274 8.63809 19.9743 8.63809 21.3768C8.63809 22.7794 9.18711 24.1262 10.1677 25.129L12.3525 27.3139C13.1011 28.0851 13.6009 29.0633 13.7872 30.1218C13.9735 31.1804 13.8377 32.2705 13.3974 33.2509V33.2509C13.0212 34.2273 12.3747 35.0764 11.5336 35.6988C10.6925 36.3213 9.6915 36.6913 8.64777 36.7657H5.27553C4.5669 36.7652 3.86546 36.9076 3.21311 37.1843C2.56076 37.4611 1.9709 37.8665 1.47878 38.3764C0.986649 38.8862 0.602358 39.4901 0.348867 40.1518C0.0953765 40.8135 -0.0221116 41.5196 0.00342451 42.2278V52.772C0.00342451 54.1702 0.558876 55.5112 1.54759 56.4999C2.5363 57.4886 3.87728 58.0441 5.27553 58.0441H8.3628C9.40653 58.1184 10.4075 58.4885 11.2486 59.1109C12.0897 59.7333 12.7362 60.5824 13.1124 61.5588C13.5633 62.5451 13.7047 63.6448 13.5182 64.7131C13.3317 65.7814 12.8259 66.7682 12.0675 67.5433L9.88268 69.7282C8.90214 70.731 8.35311 72.0778 8.35311 73.4804C8.35311 74.8829 8.90214 76.2298 9.88268 77.2326L17.3396 84.6896C18.3425 85.6701 19.6893 86.2191 21.0918 86.2191C22.4944 86.2191 23.8412 85.6701 24.8441 84.6896L27.0289 82.5047C27.8394 81.7192 28.8769 81.2091 29.9939 81.0471C31.111 80.8851 32.2507 81.0793 33.2509 81.6023C34.2273 81.9785 35.0764 82.625 35.6988 83.4661C36.3213 84.3072 36.6913 85.3082 36.7657 86.3519V89.4392C36.7255 90.1714 36.8385 90.904 37.0976 91.59C37.3566 92.2761 37.7559 92.9006 38.2699 93.4236C38.784 93.9465 39.4015 94.3565 40.083 94.6274C40.7644 94.8982 41.4949 95.0238 42.2278 94.9963H52.772C54.1702 94.9963 55.5112 94.4408 56.4999 93.4521C57.4886 92.4634 58.0441 91.1224 58.0441 89.7242V86.6369C58.1184 85.5932 58.4885 84.5922 59.1109 83.7511C59.7333 82.91 60.5824 82.2635 61.5588 81.8873V81.8873C62.5451 81.4364 63.6448 81.295 64.7131 81.4815C65.7814 81.668 66.7682 82.1738 67.5433 82.9322L69.7282 85.117C70.731 86.0976 72.0778 86.6466 73.4804 86.6466C74.8829 86.6466 76.2298 86.0976 77.2326 85.117L84.6896 77.6601C85.6701 76.6572 86.2191 75.3104 86.2191 73.9079C86.2191 72.5053 85.6701 71.1585 84.6896 70.1557L82.5047 67.9708C81.7192 67.1603 81.2091 66.1228 81.0471 65.0058C80.8851 63.8887 81.0793 62.7491 81.6023 61.7488C81.9785 60.7724 82.625 59.9233 83.4661 59.3009C84.3072 58.6784 85.3082 58.3084 86.3519 58.234H89.4392C90.1714 58.2742 90.904 58.1612 91.59 57.9021C92.2761 57.6431 92.9006 57.2438 93.4236 56.7298C93.9465 56.2157 94.3565 55.5982 94.6274 54.9167C94.8982 54.2353 95.0238 53.5048 94.9963 52.772V42.2278C94.9963 40.8295 94.4408 39.4885 93.4521 38.4998C92.4634 37.5111 91.1224 36.9556 89.7242 36.9556V36.9556Z" fill="#1D740A"/>
<path d="M47.5 66.5C57.9934 66.5 66.5 57.9934 66.5 47.5C66.5 37.0066 57.9934 28.5 47.5 28.5C37.0066 28.5 28.5 37.0066 28.5 47.5C28.5 57.9934 37.0066 66.5 47.5 66.5Z" fill="#F6921E"/>
</svg>
