<svg width="87" height="97" viewBox="0 0 87 97" fill="none" xmlns="http://www.w3.org/2000/svg">
<path d="M43.7368 56.0456C47.7201 56.0456 50.9492 52.8165 50.9492 48.8332C50.9492 44.8499 47.7201 41.6208 43.7368 41.6208C39.7535 41.6208 36.5244 44.8499 36.5244 48.8332C36.5244 52.8165 39.7535 56.0456 43.7368 56.0456Z" fill="#F6921E"/>
<path d="M43.7371 96.9158C36.5728 96.9158 30.3701 91.2901 26.0427 82.0583C21.5685 82.8069 16.9891 82.6434 12.5796 81.5774C10.4258 81.0923 8.39564 80.1669 6.6166 78.8596C4.83757 77.5522 3.34814 75.891 2.24187 73.9804V73.9804C-1.4124 67.2008 0.751314 58.0651 7.33862 48.8332C0.751314 39.6014 -1.4124 30.4657 2.24187 23.6861C3.34814 21.7755 4.83757 20.1143 6.6166 18.8069C8.39564 17.4996 10.4258 16.5742 12.5796 16.0891C16.9891 15.0231 21.5685 14.8596 26.0427 15.6082C30.3701 6.37639 36.5728 0.750732 43.7371 0.750732C50.9014 0.750732 57.104 6.37639 61.4314 15.6082C65.9057 14.8596 70.4851 15.0231 74.8945 16.0891C77.0483 16.5742 79.0785 17.4996 80.8576 18.8069C82.6366 20.1143 84.126 21.7755 85.2323 23.6861C88.8866 30.4657 86.7228 39.6014 80.1355 48.8332C86.7228 58.0651 88.8866 67.2008 85.2323 73.9804C84.126 75.891 82.6366 77.5522 80.8576 78.8596C79.0785 80.1669 77.0483 81.0923 74.8945 81.5774C70.4825 82.624 65.9069 82.7874 61.4314 82.0583C57.104 91.2901 50.9014 96.9158 43.7371 96.9158ZM35.7073 79.7984C38.3038 84.6066 41.2849 87.2993 43.7371 87.2993C46.1893 87.2993 49.1704 84.6547 51.7188 79.7984C49.0032 78.9586 46.3383 77.9632 43.7371 76.8173C41.1228 77.9713 38.4413 78.9668 35.7073 79.7984V79.7984ZM64.5568 72.7303C67.2382 73.054 69.9555 72.9076 72.5866 72.2975C73.4745 72.1416 74.321 71.8052 75.0736 71.3089C75.8262 70.8127 76.469 70.1672 76.9621 69.4126V69.4126C78.3565 66.768 77.3468 62.0559 73.8848 56.4784C71.7168 58.6943 69.4209 60.7814 67.009 62.7291C66.5021 66.157 65.7631 69.5466 64.7972 72.8745L64.5568 72.7303ZM13.7817 56.4784C10.3197 62.0559 9.31 66.768 10.7044 69.4126C11.1975 70.1672 11.8403 70.8127 12.5929 71.3089C13.3455 71.8052 14.192 72.1416 15.0799 72.2975C17.5632 72.9067 20.1301 73.1017 22.6769 72.8745C21.7823 69.5894 21.1076 66.2482 20.6575 62.8733C18.2415 60.8791 15.9456 58.7437 13.7817 56.4784V56.4784ZM29.7451 57.6323C31.8607 59.2191 34.2167 60.8058 36.717 62.4406C39.2173 64.0754 41.5253 65.1813 43.7371 66.3353C46.045 65.1813 48.5453 63.8831 50.7571 62.4406C52.9689 60.9981 55.5654 59.3152 57.7291 57.6323C58.0243 54.7087 58.1687 51.7718 58.1618 48.8332C58.1687 45.8947 58.0243 42.9578 57.7291 40.0341C55.6135 38.4474 53.2574 36.8607 50.7571 35.2259C48.2568 33.5911 45.9489 32.4852 43.7371 31.3312C41.4291 32.4852 38.9288 33.7834 36.717 35.2259C34.5052 36.6684 31.9088 38.3513 29.7451 40.0341C29.1681 45.886 29.1681 51.7805 29.7451 57.6323V57.6323ZM66.8167 34.9374C69.2286 36.8851 71.5244 38.9722 73.6925 41.1881C77.1544 35.6106 78.1642 30.8985 76.7698 28.2539C76.2767 27.4992 75.6339 26.8538 74.8813 26.3576C74.1287 25.8613 73.2822 25.5249 72.3943 25.369C69.9148 24.7357 67.3438 24.5405 64.7972 24.792C65.6982 28.1244 66.3729 31.514 66.8167 34.9374ZM19.9362 24.792C18.3148 24.7661 16.6973 24.9602 15.128 25.369C14.2401 25.5249 13.3936 25.8613 12.641 26.3576C11.8883 26.8538 11.2456 27.4992 10.7525 28.2539C9.35808 30.8985 10.3678 35.6106 13.8298 41.1881C15.9823 38.9737 18.2621 36.8866 20.6575 34.9374C21.1012 31.514 21.7759 28.1244 22.6769 24.792H19.9362ZM35.7554 17.8681C38.4709 18.7079 41.1359 19.7032 43.7371 20.8492C46.3514 19.6952 49.0328 18.6997 51.7669 17.8681C49.1704 13.0118 46.1893 10.3672 43.7371 10.3672C41.2849 10.3672 38.3038 13.0118 35.7554 17.8681V17.8681Z" fill="#1D740A"/>
</svg>
