<svg width="46" height="58" viewBox="0 0 46 58" fill="none" xmlns="http://www.w3.org/2000/svg">
<path d="M19.1609 4.61834C19.1603 4.60931 19.1597 4.60029 19.1589 4.59127C19.0792 3.66821 18.7333 2.77641 18.1413 2.10162C17.5452 1.42216 16.7203 0.994389 15.8103 1.00009H6.72718C5.86373 0.994632 5.02107 1.22858 4.25975 1.66975C3.4994 2.11036 2.84328 2.74366 2.32429 3.50853C1.80538 4.27329 1.43029 5.15909 1.2146 6.10214C0.999502 7.04258 0.945624 8.02779 1.05512 8.99354C2.22644 21.0855 6.50698 32.3644 13.2555 41.0462C20.0051 49.7293 28.8592 55.3408 38.4481 56.9214C39.2993 57.079 40.1656 56.9984 40.981 56.6911C41.7978 56.3833 42.5306 55.8609 43.138 55.1816C43.7448 54.5028 44.2167 53.6788 44.5334 52.7734C44.8498 51.869 45.0073 50.895 44.9997 49.9161V38.1002C45.0036 37.1731 44.7413 36.2496 44.2267 35.5092C43.7098 34.7654 42.9471 34.2269 42.0496 34.0997C42.035 34.0977 42.0204 34.0959 42.0058 34.0945C39.0877 33.8115 36.2242 32.8449 33.5566 31.231C32.7767 30.7406 31.8467 30.6291 30.9793 30.9539C30.1254 31.2735 29.466 31.9628 29.0724 32.7989L29.0636 32.8183L27.9126 35.4053L27.9126 35.4053L27.9075 35.4172C27.7946 35.6801 27.647 35.8911 27.4866 36.0457C27.327 36.1995 27.1618 36.2912 27.008 36.3357C26.8562 36.3797 26.7033 36.3816 26.5523 36.3423C26.3993 36.3024 26.2347 36.2164 26.0744 36.0689C26.0681 36.063 26.0617 36.0573 26.0552 36.0516C22.7507 33.1625 19.8843 29.4963 17.6123 25.234L17.6018 25.2148C17.4695 24.9791 17.3716 24.6986 17.3228 24.3907C17.2739 24.0831 17.2767 23.7645 17.3306 23.4589C17.3846 23.153 17.4869 22.8765 17.6223 22.6461C17.7577 22.4156 17.9181 22.2446 18.0808 22.13L18.0944 22.1203L20.1144 20.6463L20.1144 20.6463L20.1188 20.6431C20.8308 20.1175 21.3188 19.3169 21.5482 18.4353C21.7783 17.5514 21.7483 16.594 21.4599 15.7312C21.4585 15.7271 21.4571 15.723 21.4557 15.719C21.4537 15.7133 21.4517 15.7075 21.4496 15.7018C20.1653 12.2232 19.3884 8.46615 19.1609 4.61834Z" stroke="black" stroke-width="2" stroke-linecap="round" stroke-linejoin="round"/>
</svg>
