<svg width="355" height="355" viewBox="0 0 355 355" fill="none" xmlns="http://www.w3.org/2000/svg">
<circle cx="177.623" cy="177.377" r="177.377" transform="rotate(90 177.623 177.377)" fill="url(#paint0_linear_917_42)" fill-opacity="0.2"/>
<path d="M166.83 110.011C166.83 110.02 166.831 110.028 166.831 110.037C167.43 120.76 169.475 131.238 172.861 140.948C172.864 140.958 172.867 140.967 172.87 140.976C173.512 143.01 173.58 145.281 173.066 147.372C172.553 149.46 171.478 151.287 169.977 152.46L169.973 152.464L164.741 156.506L164.727 156.517C164.101 156.984 163.533 157.643 163.075 158.468C162.617 159.293 162.286 160.254 162.114 161.289C161.942 162.324 161.933 163.399 162.089 164.439C162.245 165.48 162.56 166.452 163.006 167.292L163.015 167.31C168.986 179.172 176.53 189.397 185.249 197.469C185.252 197.471 185.254 197.474 185.257 197.476C185.261 197.48 185.264 197.483 185.268 197.487C185.86 198.064 186.512 198.442 187.175 198.625C187.834 198.807 188.511 198.797 189.169 198.595C189.831 198.392 190.48 197.993 191.065 197.396C191.65 196.798 192.153 196.021 192.525 195.104L192.529 195.093L192.529 195.093L195.51 187.998L195.518 187.979C196.386 186.026 197.805 184.494 199.567 183.796C201.351 183.089 203.264 183.327 204.889 184.414C211.992 188.967 219.635 191.704 227.438 192.505C227.453 192.507 227.468 192.509 227.484 192.511C229.317 192.786 230.926 193.958 232.047 195.667C233.167 197.373 233.759 199.542 233.75 201.753C233.75 201.753 233.75 201.754 233.75 201.755L233.75 234.169M166.83 110.011L232.75 234.173M166.83 110.011C166.65 107.812 165.875 105.737 164.601 104.199C163.323 102.657 161.602 101.736 159.746 101.75H136.211C134.259 101.736 132.344 102.295 130.601 103.365C128.859 104.434 127.333 105.984 126.114 107.887C124.894 109.791 124.001 112.014 123.486 114.4C122.971 116.785 122.842 119.288 123.106 121.742C126.11 154.609 137.094 185.22 154.363 208.744C171.631 232.269 194.231 247.4 218.635 251.656M166.83 110.011L218.819 250.673M233.75 234.169V234.173H232.75M233.75 234.169C233.75 234.167 233.75 234.166 233.75 234.165L232.75 234.173M233.75 234.169C233.769 236.656 233.39 239.124 232.637 241.406C231.883 243.689 230.766 245.743 229.351 247.42C227.935 249.097 226.246 250.364 224.389 251.105C222.531 251.846 220.565 252.037 218.635 251.656M232.75 234.173C232.768 236.556 232.406 238.917 231.687 241.093C230.969 243.268 229.911 245.207 228.587 246.775C227.263 248.343 225.704 249.503 224.018 250.176C222.332 250.849 220.558 251.018 218.819 250.673M218.635 251.656C218.639 251.656 218.643 251.657 218.647 251.658L218.819 250.673M218.635 251.656C218.631 251.655 218.628 251.654 218.624 251.653L218.819 250.673" stroke="black" stroke-width="2" stroke-linecap="round" stroke-linejoin="round"/>
<defs>
<linearGradient id="paint0_linear_917_42" x1="35.2332" y1="39.4824" x2="276.233" y2="354.982" gradientUnits="userSpaceOnUse">
<stop stop-color="#24B1C5"/>
<stop offset="1" stop-color="#00C2FF" stop-opacity="0"/>
</linearGradient>
</defs>
</svg>
