<svg width="100" height="100" viewBox="0 0 100 100" fill="none" xmlns="http://www.w3.org/2000/svg">
<g clip-path="url(#clip0_869_37)">
<rect width="100" height="100" fill="white"/>
<path d="M55.2917 50.5H45.7083C35.5417 50.5 25.7915 54.5387 18.6026 61.7276C11.4137 68.9165 7.375 78.6667 7.375 88.8333C7.375 91.375 8.38467 93.8125 10.1819 95.6098C11.9791 97.407 14.4167 98.4167 16.9583 98.4167H84.0417C86.5833 98.4167 89.0209 97.407 90.8181 95.6098C92.6153 93.8125 93.625 91.375 93.625 88.8333C93.625 78.6667 89.5863 68.9165 82.3974 61.7276C75.2085 54.5387 65.4583 50.5 55.2917 50.5V50.5Z" fill="#227810"/>
<path d="M50.5 60.0833C66.3782 60.0833 79.25 47.2114 79.25 31.3333C79.25 15.4551 66.3782 2.58325 50.5 2.58325C34.6218 2.58325 21.75 15.4551 21.75 31.3333C21.75 47.2114 34.6218 60.0833 50.5 60.0833Z" fill="#E69322"/>
</g>
<defs>
<clipPath id="clip0_869_37">
<rect width="100" height="100" fill="white"/>
</clipPath>
</defs>
</svg>
