<svg width="96" height="96" viewBox="0 0 96 96" fill="none" xmlns="http://www.w3.org/2000/svg">
<path d="M94.7984 47.7259C94.7371 58.6186 90.916 69.1555 83.9819 77.5535C77.0478 85.9514 67.4265 91.6945 56.7465 93.8107L56.967 56.0103L59.69 58.8141C60.5655 59.7003 61.6069 60.4054 62.7548 60.8889C63.9027 61.3725 65.1345 61.6252 66.38 61.6324C67.6255 61.6397 68.8602 61.4015 70.0136 60.9313C71.1671 60.4612 72.2167 59.7684 73.1025 58.8924C73.9883 58.0164 74.693 56.9745 75.1763 55.826C75.6597 54.6776 75.9122 53.4451 75.9195 52.1991C75.9267 50.953 75.6886 49.7177 75.2187 48.5636C74.7488 47.4096 74.0563 46.3595 73.1808 45.4732L54.4002 26.4627C53.5273 25.5718 52.4867 24.8627 51.3385 24.3762C50.1903 23.8897 48.9571 23.6355 47.7102 23.6282C46.4633 23.6209 45.2273 23.8607 44.0735 24.3338C42.9197 24.8068 41.8709 25.5037 40.9876 26.3844L21.9865 45.1742C21.0887 46.0688 20.38 47.135 19.9025 48.3093C19.4251 49.4836 19.1886 50.742 19.2073 52.0096C19.1927 54.5159 20.1738 56.9254 21.9348 58.708C23.6959 60.4906 26.0925 61.5002 28.5976 61.5149C29.8407 61.5293 31.0743 61.2981 32.2279 60.8346C33.3814 60.371 34.4322 59.6842 35.3199 58.8135L38.0753 56.0417L37.8548 93.8422C29.116 92.0042 21.0771 87.7252 14.6705 81.5014C8.26393 75.2777 3.75224 67.3642 1.65876 58.679C-0.434727 49.9938 -0.0242024 40.8927 2.8427 32.4315C5.7096 23.9702 10.9154 16.4955 17.8562 10.8744C24.7971 5.2533 33.1886 1.71612 42.0573 0.673169C50.926 -0.369786 59.9086 1.12422 67.963 4.9819C76.0175 8.83958 82.8138 14.9028 87.5635 22.4684C92.3133 30.0339 94.8219 38.7917 94.7984 47.7259V47.7259Z" fill="#1D740A"/>
<path d="M44.3202 29.9007L25.3191 48.6906C24.8739 49.1273 24.5195 49.6478 24.2763 50.2222C24.0332 50.7966 23.9062 51.4135 23.9025 52.0372C23.8989 52.661 24.0187 53.2793 24.2551 53.8565C24.4915 54.4337 24.8398 54.9583 25.2799 55.4002C25.7164 55.8456 26.2367 56.2002 26.8108 56.4434C27.3849 56.6867 28.0014 56.8138 28.6249 56.8174C29.2484 56.8211 29.8664 56.7012 30.4433 56.4646C31.0202 56.2281 31.5446 55.8797 31.9862 55.4393L42.8646 44.6349L42.5727 94.6732C44.1312 94.6823 45.6883 94.9277 47.294 94.9371C48.8997 94.9464 50.4582 94.9555 52.0181 94.7284L52.3101 44.69L63.0617 55.6208C63.4995 56.064 64.0202 56.4165 64.5941 56.6583C65.1681 56.9001 65.784 57.0264 66.4067 57.03C67.0295 57.0337 67.6468 56.9145 68.2235 56.6795C68.8003 56.4444 69.325 56.098 69.768 55.66C70.2109 55.222 70.5632 54.701 70.8049 54.1268C71.0466 53.5526 71.1728 52.9364 71.1764 52.3133C71.1801 51.6903 71.061 51.0726 70.8261 50.4956C70.5911 49.9186 70.2449 49.3936 69.8071 48.9504L51.0265 29.9399C50.59 29.4944 50.0698 29.1399 49.4957 28.8966C48.9215 28.6534 48.305 28.5263 47.6815 28.5226C47.0581 28.519 46.4401 28.6389 45.8632 28.8754C45.2862 29.1119 44.7619 29.4604 44.3202 29.9007V29.9007Z" fill="#F6921E"/>
</svg>
