<svg width="50" height="59" viewBox="0 0 50 59" fill="none" xmlns="http://www.w3.org/2000/svg">
<path d="M1.37061 41.6005C1.06772 41.3551 0.935057 40.9561 1.03073 40.5781L3.73311 29.904C1.9386 27.0038 0.986282 23.5516 1.00015 20.0232C1.00126 9.50121 9.6689 1 20.315 1C29.6525 1 37.4615 7.5437 39.2428 16.2452C39.5031 17.4845 39.633 18.7537 39.6299 20.0265C39.6299 20.0269 39.6299 20.0273 39.6299 20.0277L38.6299 20.0252C38.6299 29.9807 30.4248 38.0504 20.315 38.0504L1.37061 41.6005ZM1.37061 41.6005C1.67351 41.846 2.09141 41.893 2.44127 41.721L10.6202 37.7008L10.6219 37.7L11.7684 37.1391C14.4703 38.4185 17.3785 39.0709 20.319 39.0504L1.37061 41.6005Z" stroke="black" stroke-width="2" stroke-linecap="round" stroke-linejoin="round"/>
<mask id="path-2-outside-1_874_215" maskUnits="userSpaceOnUse" x="8.1582" y="14.0979" width="42" height="45" fill="black">
<rect fill="white" x="8.1582" y="14.0979" width="42" height="45"/>
<path d="M39.8904 17.0979C42.2364 18.7713 44.1958 21.1694 45.5792 24.0604C46.9627 26.9515 47.7235 30.2377 47.788 33.6015C47.8025 37.5338 46.7907 41.3655 44.9048 44.5208L47.788 56.9999L37.7593 51.6027C34.9971 53.1274 32.0059 53.9037 28.9842 53.8801C25.2375 54.0521 21.5356 52.8209 18.3575 50.3458C15.1794 47.8707 12.6714 44.2656 11.1582 39.9971"/>
</mask>
<path d="M41.0518 15.4697C40.1526 14.8282 38.9036 15.0372 38.2622 15.9365C37.6208 16.8357 37.8298 18.0847 38.729 18.7261L41.0518 15.4697ZM47.788 33.6015L49.788 33.5942C49.788 33.5838 49.7878 33.5735 49.7876 33.5632L47.788 33.6015ZM44.9048 44.5208L43.1881 43.4947C42.9229 43.9383 42.8397 44.4674 42.9561 44.971L44.9048 44.5208ZM47.788 56.9999L46.8402 58.761C47.5319 59.1333 48.3774 59.0662 49.0017 58.5896C49.626 58.1129 49.9135 57.315 49.7367 56.5497L47.788 56.9999ZM37.7593 51.6027L38.7071 49.8415C38.1087 49.5195 37.3877 49.5233 36.7928 49.8517L37.7593 51.6027ZM28.9842 53.8801L28.9998 51.8802C28.964 51.8799 28.9282 51.8806 28.8925 51.8822L28.9842 53.8801ZM13.0433 39.3288C12.6742 38.2877 11.531 37.743 10.4899 38.112C9.44885 38.4811 8.90408 39.6243 9.27315 40.6654L13.0433 39.3288ZM38.729 18.7261C40.7696 20.1817 42.521 22.303 43.7752 24.9237L47.3833 23.1971C45.8705 20.0358 43.7032 17.3609 41.0518 15.4697L38.729 18.7261ZM43.7752 24.9237C45.0291 27.5441 45.7291 30.5473 45.7884 33.6399L49.7876 33.5632C49.7179 29.9281 48.8963 26.3588 47.3833 23.1971L43.7752 24.9237ZM45.788 33.6089C45.8013 37.2036 44.8742 40.6736 43.1881 43.4947L46.6215 45.5469C48.7072 42.0575 49.8037 37.8639 49.788 33.5942L45.788 33.6089ZM42.9561 44.971L45.8393 57.4501L49.7367 56.5497L46.8534 44.0705L42.9561 44.971ZM48.7358 55.2387L38.7071 49.8415L36.8115 53.3638L46.8402 58.761L48.7358 55.2387ZM36.7928 49.8517C34.3174 51.2181 31.6628 51.901 28.9998 51.8802L28.9686 55.88C32.349 55.9064 35.6768 55.0366 38.7258 53.3536L36.7928 49.8517ZM28.8925 51.8822C25.6587 52.0307 22.4184 50.9735 19.5864 48.7679L17.1286 51.9237C20.6527 54.6683 24.8163 56.0736 29.0759 55.878L28.8925 51.8822ZM19.5864 48.7679C16.7456 46.5555 14.4453 43.2838 13.0433 39.3288L9.27315 40.6654C10.8975 45.2474 13.6131 49.1858 17.1286 51.9237L19.5864 48.7679Z" fill="black" mask="url(#path-2-outside-1_874_215)"/>
</svg>
